<svg xmlns="http://www.w3.org/2000/svg" xmlns:xlink="http://www.w3.org/1999/xlink" width="500" zoomAndPan="magnify" viewBox="0 0 375 374.999991" height="500" preserveAspectRatio="xMidYMid meet" version="1.0"><defs><clipPath id="2951a0030d"><path d="M 11.769531 199.800781 L 124.269531 199.800781 L 124.269531 312.300781 L 11.769531 312.300781 Z M 11.769531 199.800781 " clip-rule="nonzero"/></clipPath><clipPath id="3dade90ab2"><path d="M 71.667969 52.808594 L 303 52.808594 L 303 322.058594 L 71.667969 322.058594 Z M 71.667969 52.808594 " clip-rule="nonzero"/></clipPath></defs><g clip-path="url(#2951a0030d)"><path fill="#ffffff" d="M 11.769531 199.800781 L 124.269531 199.800781 L 124.269531 312.300781 L 11.769531 312.300781 Z M 11.769531 199.800781 " fill-opacity="1" fill-rule="nonzero"/></g><g clip-path="url(#3dade90ab2)"><path fill="#000000" d="M 298.617188 201.023438 C 298.644531 198.417969 296.863281 196.355469 294.167969 193.242188 C 293.585938 192.566406 292.792969 191.648438 292.136719 190.824219 C 292.234375 190.757812 292.332031 190.683594 292.433594 190.613281 C 296.546875 187.710938 303.429688 182.855469 302.609375 175.496094 C 302.097656 170.921875 297.414062 167.425781 291.488281 162.996094 C 284.84375 158.035156 276.582031 151.859375 277.359375 146.054688 C 279.980469 126.570312 278.15625 99.777344 254.585938 82.796875 C 253.128906 81.75 251.191406 81.648438 249.621094 82.5625 C 248.070312 83.46875 247.195312 85.207031 247.394531 86.996094 C 253.355469 140.160156 232.046875 161.875 211.441406 182.875 C 203.320312 191.15625 194.921875 199.714844 188.535156 209.933594 C 176.386719 229.367188 176.546875 258.027344 188.933594 281.242188 C 202.214844 306.148438 227.097656 321.007812 257.195312 322.007812 C 257.246094 322.011719 257.300781 322.011719 257.347656 322.011719 C 259.484375 322.011719 261.339844 320.527344 261.796875 318.429688 C 262.261719 316.285156 261.128906 314.109375 259.101562 313.261719 C 254.605469 311.375 229.347656 284.714844 235.527344 260.917969 C 237.707031 252.523438 244.941406 252.097656 259.792969 253.109375 C 271.097656 253.871094 283.953125 254.773438 290.832031 245.28125 C 293.941406 240.988281 292.242188 235.125 290.746094 229.957031 C 290.160156 227.929688 289.277344 224.863281 289.445312 223.859375 C 289.839844 221.511719 291.898438 219.480469 293.402344 217.996094 C 294.058594 217.355469 294.59375 216.800781 294.9375 216.371094 C 296.109375 214.90625 296.515625 213.015625 296.058594 211.175781 C 295.796875 210.136719 295.261719 209.132812 294.460938 208.175781 C 296.71875 206.59375 298.582031 204.328125 298.617188 201.023438 Z M 287.179688 183.179688 C 285.015625 184.703125 283.449219 185.808594 282.597656 187.453125 C 280.554688 191.414062 283.816406 195.191406 287.273438 199.1875 C 287.738281 199.722656 288.328125 200.410156 288.820312 201.011719 C 287.710938 201.652344 285.914062 202.296875 285.195312 202.550781 C 284.425781 202.824219 283.777344 203.070312 283.328125 203.273438 C 281.699219 204.03125 280.664062 205.671875 280.6875 207.464844 C 280.710938 209.261719 281.785156 210.875 283.4375 211.585938 C 284.410156 212.007812 285.183594 212.402344 285.78125 212.753906 C 283.777344 214.847656 281.183594 218.058594 280.460938 222.347656 C 279.949219 225.402344 280.945312 228.839844 282 232.484375 C 282.644531 234.726562 283.855469 238.894531 283.449219 239.949219 C 279.542969 245.347656 270.242188 244.703125 260.417969 244.03125 C 247.328125 243.128906 231.015625 242.003906 226.710938 258.632812 C 221.570312 278.4375 233.226562 299.21875 243.738281 311.367188 C 216.46875 305.972656 202.925781 288.125 196.972656 276.960938 C 186.066406 256.519531 185.78125 231.519531 196.265625 214.75 C 202.121094 205.378906 209.808594 197.542969 217.949219 189.25 C 237.535156 169.28125 259.554688 146.84375 257.367188 97.585938 C 269.53125 111.726562 270.257812 130.511719 268.332031 144.84375 C 266.839844 155.945312 277.480469 163.894531 286.027344 170.28125 C 288.828125 172.371094 293.046875 175.527344 293.554688 176.507812 C 293.78125 178.523438 289.324219 181.667969 287.179688 183.179688 Z M 195.03125 317.460938 C 178.25 310.667969 164.199219 296.394531 157.03125 279.082031 C 153.351562 270.472656 151.117188 261.242188 150.425781 251.859375 C 149.6875 242.480469 150.347656 232.90625 153.316406 223.589844 C 156.453125 214.292969 161.632812 206.238281 167.371094 198.972656 C 173.082031 191.707031 179.300781 185.34375 184.441406 178.339844 C 195.222656 164.703125 200.667969 147.679688 202.597656 129.648438 C 203.546875 138.636719 203.25 147.84375 201.46875 156.957031 C 199.59375 166.054688 195.675781 174.808594 190.632812 182.625 C 185.546875 190.425781 179.644531 197.417969 174.34375 204.359375 C 169.058594 211.269531 164.675781 218.707031 161.816406 226.382812 C 156.828125 242.21875 157.886719 260.414062 163.273438 276.683594 C 168.738281 293.050781 179.75 307.726562 195.03125 317.460938 Z M 178.660156 161.175781 C 175.082031 153.316406 172.359375 144.5625 173.609375 135.183594 C 174.984375 125.628906 181.621094 118.042969 187.113281 111.726562 C 192.699219 105.226562 197.574219 98.792969 200.261719 91.222656 C 203.183594 83.785156 204.210938 75.621094 204.445312 67.371094 L 204.703125 58.304688 L 211.742188 63.875 C 220.042969 70.449219 227.261719 78.710938 231.828125 88.398438 C 236.4375 98.023438 238.6875 108.757812 238.152344 119.289062 C 237.375 140.578125 225.839844 159.726562 210.539062 172.511719 C 216.871094 164.722656 222.40625 156.410156 225.902344 147.285156 C 229.5625 138.277344 231.40625 128.679688 231.203125 119.222656 C 230.929688 103.171875 223.984375 87.960938 212.777344 76.808594 C 212.03125 82.792969 210.679688 88.757812 208.359375 94.476562 C 204.742188 103.140625 198.699219 110.582031 192.433594 116.628906 C 186.257812 122.78125 180.234375 128.375 178.082031 136.164062 C 175.535156 143.902344 177.050781 152.707031 178.660156 161.175781 Z M 152.191406 194.25 C 143.378906 197.808594 133.585938 199.582031 123.644531 198.359375 C 113.710938 197.03125 104.242188 191.769531 97.34375 184.402344 C 90.273438 177.117188 85.527344 168.160156 81.761719 159.128906 C 78.175781 149.992188 75.679688 140.535156 73.726562 131.1875 L 71.667969 121.34375 L 80.363281 126.285156 C 87.167969 130.152344 95.382812 131.855469 103.785156 133.246094 C 112.210938 134.675781 121.023438 135.46875 129.8125 137.648438 C 138.542969 139.683594 147.554688 143.324219 154.226562 149.882812 C 160.824219 156.496094 164.472656 165.148438 165.859375 173.761719 C 162.558594 165.679688 158.15625 157.992188 151.367188 153.167969 C 144.792969 148.148438 136.710938 145.851562 128.425781 144.496094 C 120.082031 143.226562 111.441406 142.703125 102.585938 141.675781 C 96.644531 140.953125 90.515625 139.816406 84.515625 137.792969 C 88.164062 153.039062 93.195312 167.871094 102.699219 179.597656 C 108.320312 186.410156 115.789062 191.675781 124.550781 193.90625 C 133.28125 196.476562 142.828125 195.800781 152.191406 194.25 Z M 111.09375 59.691406 L 108.554688 52.859375 L 115.816406 53.632812 C 124.113281 54.519531 132.449219 55.847656 140.667969 58.277344 C 148.746094 60.894531 157.117188 64.511719 163.433594 71.160156 C 169.941406 77.714844 172.71875 86.890625 173.199219 95.226562 C 173.53125 103.691406 172.777344 111.8125 171.835938 119.980469 C 170.710938 111.839844 170.539062 103.574219 168.75 95.828125 C 167.230469 88.0625 163.980469 81.039062 158.460938 76.269531 C 152.921875 71.527344 145.800781 68.496094 138.28125 66.582031 C 132.890625 65.148438 127.292969 64.242188 121.640625 63.515625 C 122.960938 68.359375 124.0625 73.257812 124.589844 78.214844 C 125.355469 85.53125 125.398438 92.796875 125.4375 99.71875 C 125.59375 106.632812 126.09375 113.257812 129.28125 119.027344 C 132.265625 124.960938 137.863281 129.488281 143.605469 133.675781 C 136.914062 131.25 130.441406 127.445312 125.582031 121.4375 C 120.8125 115.269531 119.148438 107.316406 118.398438 100.210938 C 117.511719 93.003906 117.261719 86.074219 116.085938 79.34375 C 115.050781 72.605469 113.453125 66.039062 111.09375 59.691406 Z M 111.09375 59.691406 " fill-opacity="1" fill-rule="nonzero"/></g></svg>