<svg xmlns="http://www.w3.org/2000/svg" xmlns:xlink="http://www.w3.org/1999/xlink" width="500" zoomAndPan="magnify" viewBox="0 0 375 374.999991" height="500" preserveAspectRatio="xMidYMid meet" version="1.0"><defs><g/><clipPath id="106bc2b02d"><path d="M 114.636719 88.777344 L 243.636719 88.777344 L 243.636719 238.777344 L 114.636719 238.777344 Z M 114.636719 88.777344 " clip-rule="nonzero"/></clipPath></defs><rect x="-37.5" width="450" fill="#ffffff" y="-37.499999" height="449.999989" fill-opacity="1"/><rect x="-37.5" width="450" fill="#5271ff" y="-37.499999" height="449.999989" fill-opacity="1"/><g clip-path="url(#106bc2b02d)"><path fill="#000000" d="M 240.964844 171.34375 C 240.976562 169.894531 239.988281 168.746094 238.488281 167.011719 C 238.164062 166.632812 237.722656 166.125 237.355469 165.664062 C 237.410156 165.625 237.464844 165.585938 237.523438 165.546875 C 239.8125 163.929688 243.640625 161.222656 243.1875 157.125 C 242.902344 154.578125 240.296875 152.628906 236.996094 150.160156 C 233.296875 147.394531 228.699219 143.953125 229.132812 140.722656 C 230.589844 129.867188 229.574219 114.941406 216.453125 105.480469 C 215.644531 104.894531 214.566406 104.839844 213.691406 105.347656 C 212.828125 105.851562 212.339844 106.820312 212.453125 107.820312 C 215.769531 137.4375 203.910156 149.535156 192.4375 161.238281 C 187.917969 165.847656 183.242188 170.617188 179.6875 176.308594 C 172.925781 187.136719 173.015625 203.105469 179.910156 216.039062 C 187.304688 229.914062 201.152344 238.191406 217.90625 238.75 C 217.933594 238.75 217.964844 238.75 217.992188 238.75 C 219.179688 238.75 220.214844 237.925781 220.46875 236.757812 C 220.726562 235.5625 220.097656 234.347656 218.96875 233.875 C 216.464844 232.828125 202.40625 217.972656 205.84375 204.714844 C 207.058594 200.039062 211.085938 199.800781 219.355469 200.367188 C 225.644531 200.789062 232.800781 201.292969 236.628906 196.003906 C 238.363281 193.613281 237.414062 190.34375 236.582031 187.464844 C 236.257812 186.335938 235.765625 184.628906 235.859375 184.070312 C 236.078125 182.761719 237.226562 181.628906 238.0625 180.804688 C 238.425781 180.445312 238.726562 180.136719 238.914062 179.898438 C 239.566406 179.082031 239.792969 178.027344 239.539062 177.003906 C 239.394531 176.421875 239.097656 175.863281 238.652344 175.332031 C 239.90625 174.449219 240.945312 173.1875 240.964844 171.34375 Z M 234.597656 161.40625 C 233.390625 162.253906 232.519531 162.871094 232.046875 163.785156 C 230.910156 165.992188 232.726562 168.097656 234.648438 170.324219 C 234.90625 170.621094 235.238281 171.003906 235.511719 171.339844 C 234.894531 171.695312 233.890625 172.054688 233.492188 172.199219 C 233.066406 172.351562 232.703125 172.488281 232.453125 172.601562 C 231.546875 173.023438 230.972656 173.933594 230.984375 174.9375 C 230.996094 175.9375 231.59375 176.835938 232.511719 177.230469 C 233.054688 177.464844 233.484375 177.6875 233.816406 177.882812 C 232.703125 179.046875 231.261719 180.839844 230.855469 183.226562 C 230.574219 184.929688 231.125 186.84375 231.714844 188.875 C 232.074219 190.121094 232.746094 192.445312 232.519531 193.03125 C 230.347656 196.039062 225.167969 195.679688 219.699219 195.308594 C 212.414062 194.804688 203.335938 194.179688 200.9375 203.441406 C 198.078125 214.476562 204.566406 226.054688 210.417969 232.820312 C 195.234375 229.816406 187.699219 219.871094 184.382812 213.652344 C 178.3125 202.265625 178.15625 188.335938 183.992188 178.992188 C 187.25 173.773438 191.53125 169.40625 196.0625 164.785156 C 206.964844 153.664062 219.21875 141.160156 218.003906 113.71875 C 224.773438 121.597656 225.175781 132.0625 224.105469 140.046875 C 223.277344 146.234375 229.199219 150.660156 233.957031 154.21875 C 235.515625 155.382812 237.863281 157.140625 238.144531 157.6875 C 238.273438 158.808594 235.792969 160.5625 234.597656 161.40625 Z M 183.304688 236.214844 C 173.964844 232.433594 166.140625 224.480469 162.152344 214.835938 C 160.105469 210.039062 158.859375 204.898438 158.476562 199.667969 C 158.0625 194.441406 158.433594 189.109375 160.085938 183.917969 C 161.832031 178.738281 164.714844 174.25 167.90625 170.203125 C 171.085938 166.15625 174.546875 162.613281 177.410156 158.710938 C 183.410156 151.113281 186.441406 141.625 187.515625 131.582031 C 188.042969 136.589844 187.878906 141.71875 186.886719 146.796875 C 185.84375 151.863281 183.664062 156.742188 180.855469 161.097656 C 178.023438 165.441406 174.738281 169.339844 171.789062 173.207031 C 168.847656 177.054688 166.40625 181.199219 164.816406 185.476562 C 162.039062 194.296875 162.628906 204.433594 165.625 213.5 C 168.667969 222.617188 174.800781 230.792969 183.304688 236.214844 Z M 174.191406 149.144531 C 172.199219 144.765625 170.683594 139.890625 171.378906 134.664062 C 172.144531 129.34375 175.839844 125.117188 178.898438 121.597656 C 182.007812 117.976562 184.71875 114.390625 186.214844 110.175781 C 187.84375 106.03125 188.414062 101.480469 188.542969 96.882812 L 188.6875 91.832031 L 192.605469 94.9375 C 197.226562 98.597656 201.246094 103.203125 203.785156 108.601562 C 206.351562 113.964844 207.605469 119.941406 207.308594 125.808594 C 206.875 137.667969 200.453125 148.339844 191.9375 155.460938 C 195.460938 151.121094 198.542969 146.488281 200.488281 141.40625 C 202.527344 136.386719 203.554688 131.042969 203.4375 125.773438 C 203.289062 116.832031 199.421875 108.355469 193.183594 102.144531 C 192.765625 105.476562 192.015625 108.800781 190.722656 111.988281 C 188.710938 116.8125 185.34375 120.960938 181.859375 124.328125 C 178.421875 127.757812 175.070312 130.871094 173.871094 135.210938 C 172.453125 139.523438 173.296875 144.425781 174.191406 149.144531 Z M 159.460938 167.574219 C 154.550781 169.554688 149.101562 170.542969 143.570312 169.863281 C 138.039062 169.121094 132.769531 166.191406 128.929688 162.085938 C 124.992188 158.027344 122.351562 153.035156 120.253906 148.007812 C 118.257812 142.914062 116.871094 137.648438 115.78125 132.4375 L 114.636719 126.957031 L 119.476562 129.707031 C 123.265625 131.863281 127.835938 132.8125 132.511719 133.585938 C 137.203125 134.382812 142.109375 134.824219 147 136.039062 C 151.863281 137.171875 156.878906 139.199219 160.589844 142.855469 C 164.261719 146.539062 166.296875 151.359375 167.066406 156.160156 C 165.230469 151.65625 162.777344 147.375 159 144.683594 C 155.339844 141.886719 150.839844 140.609375 146.230469 139.851562 C 141.585938 139.148438 136.773438 138.855469 131.847656 138.28125 C 128.539062 137.878906 125.128906 137.246094 121.789062 136.121094 C 123.820312 144.613281 126.617188 152.875 131.910156 159.410156 C 135.039062 163.203125 139.195312 166.136719 144.074219 167.382812 C 148.933594 168.8125 154.246094 168.4375 159.460938 167.574219 Z M 136.582031 92.605469 L 135.167969 88.800781 L 139.210938 89.230469 C 143.828125 89.726562 148.46875 90.464844 153.042969 91.820312 C 157.539062 93.277344 162.199219 95.292969 165.714844 98.996094 C 169.339844 102.648438 170.886719 107.761719 171.152344 112.402344 C 171.335938 117.121094 170.917969 121.644531 170.394531 126.195312 C 169.769531 121.660156 169.671875 117.054688 168.675781 112.738281 C 167.832031 108.414062 166.019531 104.5 162.949219 101.84375 C 159.867188 99.199219 155.902344 97.511719 151.714844 96.445312 C 148.714844 95.644531 145.597656 95.140625 142.453125 94.738281 C 143.1875 97.4375 143.800781 100.164062 144.09375 102.925781 C 144.519531 107.003906 144.546875 111.050781 144.566406 114.90625 C 144.652344 118.757812 144.933594 122.449219 146.703125 125.664062 C 148.367188 128.96875 151.480469 131.492188 154.679688 133.828125 C 150.953125 132.472656 147.351562 130.355469 144.648438 127.007812 C 141.992188 123.570312 141.066406 119.140625 140.648438 115.183594 C 140.15625 111.164062 140.015625 107.304688 139.359375 103.554688 C 138.785156 99.800781 137.894531 96.140625 136.582031 92.605469 Z M 136.582031 92.605469 " fill-opacity="1" fill-rule="nonzero"/></g><g fill="#000000" fill-opacity="1"><g transform="translate(98.254003, 271.90948)"><g><path d="M 9.171875 0.328125 C 7.785156 0.328125 6.5625 0.117188 5.5 -0.296875 C 4.445312 -0.722656 3.601562 -1.3125 2.96875 -2.0625 C 2.332031 -2.820312 1.957031 -3.710938 1.84375 -4.734375 L 4.90625 -4.734375 C 5.164062 -3.960938 5.660156 -3.34375 6.390625 -2.875 C 7.128906 -2.40625 8.085938 -2.171875 9.265625 -2.171875 C 10.109375 -2.171875 10.847656 -2.289062 11.484375 -2.53125 C 12.117188 -2.78125 12.617188 -3.117188 12.984375 -3.546875 C 13.359375 -3.984375 13.546875 -4.484375 13.546875 -5.046875 L 13.546875 -5.078125 C 13.546875 -5.710938 13.289062 -6.25 12.78125 -6.6875 C 12.28125 -7.132812 11.457031 -7.492188 10.3125 -7.765625 L 7.421875 -8.46875 C 5.691406 -8.875 4.414062 -9.476562 3.59375 -10.28125 C 2.78125 -11.082031 2.375 -12.148438 2.375 -13.484375 L 2.375 -13.5 C 2.375 -14.269531 2.546875 -14.984375 2.890625 -15.640625 C 3.234375 -16.296875 3.71875 -16.867188 4.34375 -17.359375 C 4.976562 -17.847656 5.710938 -18.226562 6.546875 -18.5 C 7.390625 -18.769531 8.304688 -18.90625 9.296875 -18.90625 C 10.585938 -18.90625 11.734375 -18.703125 12.734375 -18.296875 C 13.742188 -17.890625 14.554688 -17.3125 15.171875 -16.5625 C 15.785156 -15.8125 16.160156 -14.929688 16.296875 -13.921875 L 13.359375 -13.921875 C 13.160156 -14.660156 12.710938 -15.257812 12.015625 -15.71875 C 11.316406 -16.175781 10.398438 -16.40625 9.265625 -16.40625 C 8.535156 -16.40625 7.882812 -16.285156 7.3125 -16.046875 C 6.738281 -15.816406 6.285156 -15.492188 5.953125 -15.078125 C 5.617188 -14.660156 5.453125 -14.175781 5.453125 -13.625 L 5.453125 -13.59375 C 5.453125 -12.96875 5.695312 -12.445312 6.1875 -12.03125 C 6.675781 -11.613281 7.46875 -11.273438 8.5625 -11.015625 L 11.421875 -10.328125 C 13.171875 -9.898438 14.472656 -9.289062 15.328125 -8.5 C 16.179688 -7.707031 16.609375 -6.644531 16.609375 -5.3125 L 16.609375 -5.28125 C 16.609375 -4.445312 16.421875 -3.6875 16.046875 -3 C 15.679688 -2.320312 15.15625 -1.734375 14.46875 -1.234375 C 13.789062 -0.734375 13 -0.347656 12.09375 -0.078125 C 11.195312 0.191406 10.222656 0.328125 9.171875 0.328125 Z M 9.171875 0.328125 "/></g></g></g><g fill="#000000" fill-opacity="1"><g transform="translate(116.72971, 271.90948)"><g><path d="M 2.96875 0 L 2.96875 -25.953125 L 5.96875 -25.953125 L 5.96875 -10.46875 L 6.234375 -10.46875 L 14.265625 -18.578125 L 17.90625 -18.578125 L 9.8125 -10.765625 L 18.4375 0 L 14.671875 0 L 7.703125 -8.734375 L 5.96875 -7.046875 L 5.96875 0 Z M 2.96875 0 "/></g></g></g><g fill="#000000" fill-opacity="1"><g transform="translate(135.894809, 271.90948)"><g><path d="M 4.375 -22.15625 C 4 -22.15625 3.65625 -22.25 3.34375 -22.4375 C 3.03125 -22.625 2.78125 -22.875 2.59375 -23.1875 C 2.40625 -23.5 2.3125 -23.847656 2.3125 -24.234375 C 2.3125 -24.609375 2.40625 -24.953125 2.59375 -25.265625 C 2.78125 -25.585938 3.03125 -25.835938 3.34375 -26.015625 C 3.65625 -26.203125 4 -26.296875 4.375 -26.296875 C 4.757812 -26.296875 5.109375 -26.203125 5.421875 -26.015625 C 5.734375 -25.835938 5.984375 -25.585938 6.171875 -25.265625 C 6.359375 -24.953125 6.453125 -24.609375 6.453125 -24.234375 C 6.453125 -23.847656 6.359375 -23.5 6.171875 -23.1875 C 5.984375 -22.875 5.734375 -22.625 5.421875 -22.4375 C 5.109375 -22.25 4.757812 -22.15625 4.375 -22.15625 Z M 2.859375 0 L 2.859375 -18.578125 L 5.859375 -18.578125 L 5.859375 0 Z M 2.859375 0 "/></g></g></g><g fill="#000000" fill-opacity="1"><g transform="translate(144.615618, 271.90948)"><g><path d="M 2.796875 0 L 2.796875 -18.578125 L 5.796875 -18.578125 L 5.796875 -15.78125 L 6.0625 -15.78125 C 6.53125 -16.769531 7.207031 -17.535156 8.09375 -18.078125 C 8.976562 -18.628906 10.109375 -18.90625 11.484375 -18.90625 C 13.566406 -18.90625 15.164062 -18.3125 16.28125 -17.125 C 17.40625 -15.9375 17.96875 -14.238281 17.96875 -12.03125 L 17.96875 0 L 14.984375 0 L 14.984375 -11.3125 C 14.984375 -12.988281 14.628906 -14.226562 13.921875 -15.03125 C 13.210938 -15.84375 12.117188 -16.25 10.640625 -16.25 C 9.648438 -16.25 8.789062 -16.035156 8.0625 -15.609375 C 7.34375 -15.191406 6.785156 -14.59375 6.390625 -13.8125 C 5.992188 -13.03125 5.796875 -12.09375 5.796875 -11 L 5.796875 0 Z M 2.796875 0 "/></g></g></g><g fill="#000000" fill-opacity="1"><g transform="translate(165.211206, 271.90948)"><g><path d="M 10.390625 0.328125 C 8.660156 0.328125 7.15625 -0.0664062 5.875 -0.859375 C 4.601562 -1.648438 3.613281 -2.769531 2.90625 -4.21875 C 2.207031 -5.664062 1.859375 -7.375 1.859375 -9.34375 L 1.859375 -9.375 C 1.859375 -10.820312 2.054688 -12.128906 2.453125 -13.296875 C 2.847656 -14.460938 3.414062 -15.460938 4.15625 -16.296875 C 4.90625 -17.140625 5.800781 -17.785156 6.84375 -18.234375 C 7.894531 -18.679688 9.070312 -18.90625 10.375 -18.90625 C 11.882812 -18.90625 13.179688 -18.640625 14.265625 -18.109375 C 15.359375 -17.585938 16.234375 -16.878906 16.890625 -15.984375 C 17.546875 -15.097656 17.960938 -14.101562 18.140625 -13 L 18.171875 -12.890625 L 15.1875 -12.890625 L 15.171875 -12.9375 C 15.015625 -13.550781 14.726562 -14.109375 14.3125 -14.609375 C 13.894531 -15.109375 13.359375 -15.503906 12.703125 -15.796875 C 12.046875 -16.097656 11.269531 -16.25 10.375 -16.25 C 9.257812 -16.25 8.289062 -15.96875 7.46875 -15.40625 C 6.65625 -14.84375 6.023438 -14.046875 5.578125 -13.015625 C 5.140625 -11.992188 4.921875 -10.78125 4.921875 -9.375 L 4.921875 -9.34375 C 4.921875 -7.914062 5.144531 -6.675781 5.59375 -5.625 C 6.050781 -4.570312 6.6875 -3.757812 7.5 -3.1875 C 8.3125 -2.613281 9.269531 -2.328125 10.375 -2.328125 C 11.625 -2.328125 12.644531 -2.597656 13.4375 -3.140625 C 14.226562 -3.679688 14.800781 -4.46875 15.15625 -5.5 L 15.1875 -5.59375 L 18.140625 -5.625 L 18.109375 -5.421875 C 17.859375 -4.304688 17.410156 -3.316406 16.765625 -2.453125 C 16.117188 -1.585938 15.269531 -0.90625 14.21875 -0.40625 C 13.164062 0.0820312 11.890625 0.328125 10.390625 0.328125 Z M 10.390625 0.328125 "/></g></g></g><g fill="#000000" fill-opacity="1"><g transform="translate(184.962288, 271.90948)"><g><path d="M 7.890625 0.328125 C 6.722656 0.328125 5.671875 0.101562 4.734375 -0.34375 C 3.796875 -0.789062 3.050781 -1.425781 2.5 -2.25 C 1.957031 -3.082031 1.6875 -4.0625 1.6875 -5.1875 L 1.6875 -5.21875 C 1.6875 -6.875 2.273438 -8.171875 3.453125 -9.109375 C 4.628906 -10.046875 6.300781 -10.578125 8.46875 -10.703125 L 13.78125 -11.03125 L 13.78125 -12.71875 C 13.78125 -13.863281 13.429688 -14.738281 12.734375 -15.34375 C 12.046875 -15.945312 11.003906 -16.25 9.609375 -16.25 C 8.492188 -16.25 7.582031 -16.050781 6.875 -15.65625 C 6.164062 -15.257812 5.691406 -14.703125 5.453125 -13.984375 L 5.421875 -13.921875 L 2.4375 -13.921875 L 2.453125 -14.03125 C 2.609375 -15.007812 3.007812 -15.863281 3.65625 -16.59375 C 4.3125 -17.320312 5.15625 -17.890625 6.1875 -18.296875 C 7.21875 -18.703125 8.394531 -18.90625 9.71875 -18.90625 C 11.238281 -18.90625 12.523438 -18.65625 13.578125 -18.15625 C 14.628906 -17.664062 15.425781 -16.957031 15.96875 -16.03125 C 16.507812 -15.113281 16.78125 -14.007812 16.78125 -12.71875 L 16.78125 0 L 13.78125 0 L 13.78125 -2.734375 L 13.515625 -2.734375 C 12.929688 -1.753906 12.160156 -1 11.203125 -0.46875 C 10.242188 0.0625 9.140625 0.328125 7.890625 0.328125 Z M 4.75 -5.25 C 4.75 -4.632812 4.910156 -4.101562 5.234375 -3.65625 C 5.566406 -3.207031 6.019531 -2.863281 6.59375 -2.625 C 7.164062 -2.394531 7.804688 -2.28125 8.515625 -2.28125 C 9.535156 -2.28125 10.441406 -2.484375 11.234375 -2.890625 C 12.023438 -3.296875 12.644531 -3.847656 13.09375 -4.546875 C 13.550781 -5.242188 13.78125 -6.035156 13.78125 -6.921875 L 13.78125 -8.625 L 8.828125 -8.3125 C 7.410156 -8.226562 6.375 -7.929688 5.71875 -7.421875 C 5.070312 -6.921875 4.75 -6.210938 4.75 -5.296875 Z M 4.75 -5.25 "/></g></g></g><g fill="#000000" fill-opacity="1"><g transform="translate(204.437613, 271.90948)"><g><path d="M 2.796875 0 L 2.796875 -18.578125 L 5.796875 -18.578125 L 5.796875 -15.828125 L 6.0625 -15.828125 C 6.414062 -16.796875 7.019531 -17.550781 7.875 -18.09375 C 8.726562 -18.632812 9.78125 -18.90625 11.03125 -18.90625 C 11.320312 -18.90625 11.609375 -18.890625 11.890625 -18.859375 C 12.171875 -18.835938 12.382812 -18.8125 12.53125 -18.78125 L 12.53125 -15.875 C 12.21875 -15.925781 11.914062 -15.96875 11.625 -16 C 11.332031 -16.03125 11.019531 -16.046875 10.6875 -16.046875 C 9.726562 -16.046875 8.878906 -15.851562 8.140625 -15.46875 C 7.410156 -15.09375 6.835938 -14.566406 6.421875 -13.890625 C 6.003906 -13.210938 5.796875 -12.421875 5.796875 -11.515625 L 5.796875 0 Z M 2.796875 0 "/></g></g></g><g fill="#000000" fill-opacity="1"><g transform="translate(217.880758, 271.90948)"><g><path d="M 10.375 0.328125 C 8.601562 0.328125 7.082031 -0.0625 5.8125 -0.84375 C 4.539062 -1.625 3.5625 -2.726562 2.875 -4.15625 C 2.195312 -5.59375 1.859375 -7.28125 1.859375 -9.21875 L 1.859375 -9.234375 C 1.859375 -10.671875 2.050781 -11.976562 2.4375 -13.15625 C 2.832031 -14.34375 3.394531 -15.363281 4.125 -16.21875 C 4.851562 -17.082031 5.726562 -17.742188 6.75 -18.203125 C 7.78125 -18.671875 8.925781 -18.90625 10.1875 -18.90625 C 11.445312 -18.90625 12.578125 -18.679688 13.578125 -18.234375 C 14.578125 -17.785156 15.429688 -17.148438 16.140625 -16.328125 C 16.847656 -15.503906 17.382812 -14.523438 17.75 -13.390625 C 18.113281 -12.253906 18.296875 -10.988281 18.296875 -9.59375 L 18.296875 -8.421875 L 4.921875 -8.421875 C 4.960938 -7.148438 5.207031 -6.0625 5.65625 -5.15625 C 6.113281 -4.25 6.75 -3.550781 7.5625 -3.0625 C 8.382812 -2.582031 9.34375 -2.34375 10.4375 -2.34375 C 11.28125 -2.34375 12.007812 -2.457031 12.625 -2.6875 C 13.25 -2.914062 13.757812 -3.207031 14.15625 -3.5625 C 14.5625 -3.925781 14.847656 -4.289062 15.015625 -4.65625 L 15.078125 -4.8125 L 18.078125 -4.8125 L 18.046875 -4.671875 C 17.878906 -4.035156 17.59375 -3.421875 17.1875 -2.828125 C 16.78125 -2.242188 16.253906 -1.710938 15.609375 -1.234375 C 14.972656 -0.753906 14.210938 -0.375 13.328125 -0.09375 C 12.453125 0.1875 11.46875 0.328125 10.375 0.328125 Z M 10.171875 -16.234375 C 9.253906 -16.234375 8.421875 -16.023438 7.671875 -15.609375 C 6.929688 -15.203125 6.328125 -14.597656 5.859375 -13.796875 C 5.390625 -12.992188 5.097656 -12.003906 4.984375 -10.828125 L 15.25 -10.828125 C 15.144531 -12.054688 14.863281 -13.066406 14.40625 -13.859375 C 13.945312 -14.660156 13.351562 -15.253906 12.625 -15.640625 C 11.90625 -16.035156 11.085938 -16.234375 10.171875 -16.234375 Z M 10.171875 -16.234375 "/></g></g></g><g fill="#000000" fill-opacity="1"><g transform="translate(238.045475, 271.90948)"><g><path d="M 5.234375 0.171875 C 4.835938 0.171875 4.46875 0.0703125 4.125 -0.125 C 3.78125 -0.332031 3.503906 -0.609375 3.296875 -0.953125 C 3.097656 -1.296875 3 -1.664062 3 -2.0625 C 3 -2.476562 3.097656 -2.851562 3.296875 -3.1875 C 3.503906 -3.53125 3.78125 -3.800781 4.125 -4 C 4.46875 -4.207031 4.835938 -4.3125 5.234375 -4.3125 C 5.648438 -4.3125 6.023438 -4.207031 6.359375 -4 C 6.703125 -3.800781 6.972656 -3.53125 7.171875 -3.1875 C 7.378906 -2.851562 7.484375 -2.476562 7.484375 -2.0625 C 7.484375 -1.664062 7.378906 -1.296875 7.171875 -0.953125 C 6.972656 -0.609375 6.703125 -0.332031 6.359375 -0.125 C 6.023438 0.0703125 5.648438 0.171875 5.234375 0.171875 Z M 5.234375 0.171875 "/></g></g></g><g fill="#000000" fill-opacity="1"><g transform="translate(248.524234, 271.90948)"><g><path d="M 7.890625 0.328125 C 6.722656 0.328125 5.671875 0.101562 4.734375 -0.34375 C 3.796875 -0.789062 3.050781 -1.425781 2.5 -2.25 C 1.957031 -3.082031 1.6875 -4.0625 1.6875 -5.1875 L 1.6875 -5.21875 C 1.6875 -6.875 2.273438 -8.171875 3.453125 -9.109375 C 4.628906 -10.046875 6.300781 -10.578125 8.46875 -10.703125 L 13.78125 -11.03125 L 13.78125 -12.71875 C 13.78125 -13.863281 13.429688 -14.738281 12.734375 -15.34375 C 12.046875 -15.945312 11.003906 -16.25 9.609375 -16.25 C 8.492188 -16.25 7.582031 -16.050781 6.875 -15.65625 C 6.164062 -15.257812 5.691406 -14.703125 5.453125 -13.984375 L 5.421875 -13.921875 L 2.4375 -13.921875 L 2.453125 -14.03125 C 2.609375 -15.007812 3.007812 -15.863281 3.65625 -16.59375 C 4.3125 -17.320312 5.15625 -17.890625 6.1875 -18.296875 C 7.21875 -18.703125 8.394531 -18.90625 9.71875 -18.90625 C 11.238281 -18.90625 12.523438 -18.65625 13.578125 -18.15625 C 14.628906 -17.664062 15.425781 -16.957031 15.96875 -16.03125 C 16.507812 -15.113281 16.78125 -14.007812 16.78125 -12.71875 L 16.78125 0 L 13.78125 0 L 13.78125 -2.734375 L 13.515625 -2.734375 C 12.929688 -1.753906 12.160156 -1 11.203125 -0.46875 C 10.242188 0.0625 9.140625 0.328125 7.890625 0.328125 Z M 4.75 -5.25 C 4.75 -4.632812 4.910156 -4.101562 5.234375 -3.65625 C 5.566406 -3.207031 6.019531 -2.863281 6.59375 -2.625 C 7.164062 -2.394531 7.804688 -2.28125 8.515625 -2.28125 C 9.535156 -2.28125 10.441406 -2.484375 11.234375 -2.890625 C 12.023438 -3.296875 12.644531 -3.847656 13.09375 -4.546875 C 13.550781 -5.242188 13.78125 -6.035156 13.78125 -6.921875 L 13.78125 -8.625 L 8.828125 -8.3125 C 7.410156 -8.226562 6.375 -7.929688 5.71875 -7.421875 C 5.070312 -6.921875 4.75 -6.210938 4.75 -5.296875 Z M 4.75 -5.25 "/></g></g></g><g fill="#000000" fill-opacity="1"><g transform="translate(267.99956, 271.90948)"><g><path d="M 4.375 -22.15625 C 4 -22.15625 3.65625 -22.25 3.34375 -22.4375 C 3.03125 -22.625 2.78125 -22.875 2.59375 -23.1875 C 2.40625 -23.5 2.3125 -23.847656 2.3125 -24.234375 C 2.3125 -24.609375 2.40625 -24.953125 2.59375 -25.265625 C 2.78125 -25.585938 3.03125 -25.835938 3.34375 -26.015625 C 3.65625 -26.203125 4 -26.296875 4.375 -26.296875 C 4.757812 -26.296875 5.109375 -26.203125 5.421875 -26.015625 C 5.734375 -25.835938 5.984375 -25.585938 6.171875 -25.265625 C 6.359375 -24.953125 6.453125 -24.609375 6.453125 -24.234375 C 6.453125 -23.847656 6.359375 -23.5 6.171875 -23.1875 C 5.984375 -22.875 5.734375 -22.625 5.421875 -22.4375 C 5.109375 -22.25 4.757812 -22.15625 4.375 -22.15625 Z M 2.859375 0 L 2.859375 -18.578125 L 5.859375 -18.578125 L 5.859375 0 Z M 2.859375 0 "/></g></g></g></svg>